<?xml version="1.0" encoding="utf-8"?>
<!-- Generator: Adobe Illustrator 18.1.0, SVG Export Plug-In . SVG Version: 6.00 Build 0)  -->
<!DOCTYPE svg PUBLIC "-//W3C//DTD SVG 1.1//EN" "http://www.w3.org/Graphics/SVG/1.1/DTD/svg11.dtd">
<svg version="1.1" id="Layer_1" xmlns="http://www.w3.org/2000/svg" xmlns:xlink="http://www.w3.org/1999/xlink" x="0px" y="0px"
	 width="192px" height="34.8px" viewBox="0 0 192 34.8" enable-background="new 0 0 192 34.8" xml:space="preserve">
<g>
	<path fill="#FFFFFF" d="M17.2,26.1c-0.7,0.6-1.6,0.9-2.7,1.2c-1.1,0.2-2.3,0.3-3.5,0.3c-1.5,0-2.9-0.3-4.2-0.8
		c-1.3-0.5-2.5-1.3-3.5-2.4c-1-1.1-1.8-2.4-2.3-4C0.3,18.8,0,16.8,0,14.6c0-2.3,0.3-4.3,1-6c0.6-1.6,1.5-3,2.5-4
		c1-1,2.2-1.8,3.5-2.3c1.3-0.5,2.6-0.7,4-0.7c1.4,0,2.6,0.1,3.5,0.2c0.9,0.2,1.7,0.4,2.3,0.6l-0.7,2.7c-1.2-0.6-2.8-0.9-4.9-0.9
		c-1,0-2,0.2-2.9,0.5c-1,0.4-1.8,0.9-2.6,1.8C4.9,7.3,4.3,8.4,3.8,9.7c-0.5,1.3-0.7,2.9-0.7,4.9c0,1.7,0.2,3.2,0.6,4.5
		c0.4,1.3,1,2.4,1.8,3.2c0.8,0.9,1.6,1.5,2.7,1.9c1,0.4,2.1,0.6,3.3,0.6c1.1,0,2-0.1,2.8-0.3c0.8-0.2,1.5-0.5,2-0.8L17.2,26.1z"/>
	<path fill="#FFFFFF" d="M20.1,10.5c0.9-0.6,2-1,3.2-1.2c1.2-0.3,2.5-0.4,3.8-0.4c1.2,0,2.2,0.2,3,0.5c0.8,0.3,1.3,0.8,1.7,1.3
		c0.4,0.5,0.7,1.1,0.8,1.8c0.1,0.6,0.2,1.3,0.2,1.9c0,1.4,0,2.8-0.1,4.2c-0.1,1.4-0.1,2.7-0.1,3.9c0,0.9,0,1.7,0.1,2.5
		c0.1,0.8,0.2,1.5,0.4,2.2H31l-0.8-2.5H30c-0.2,0.3-0.5,0.7-0.8,1c-0.3,0.3-0.7,0.6-1.2,0.9c-0.5,0.3-1,0.5-1.6,0.6
		c-0.6,0.2-1.3,0.3-2.1,0.3c-0.8,0-1.5-0.1-2.1-0.4c-0.7-0.2-1.2-0.6-1.7-1c-0.5-0.4-0.9-1-1.1-1.6c-0.3-0.6-0.4-1.3-0.4-2.1
		c0-1.1,0.2-1.9,0.6-2.6c0.4-0.7,1-1.3,1.8-1.7c0.8-0.4,1.7-0.7,2.8-0.9c1.1-0.2,2.3-0.3,3.6-0.3c0.3,0,0.7,0,1,0c0.3,0,0.7,0,1,0.1
		C30,16.2,30,15.5,30,15c0-1.3-0.3-2.2-0.8-2.8c-0.5-0.5-1.5-0.8-2.9-0.8c-0.4,0-0.8,0-1.3,0.1c-0.5,0.1-0.9,0.1-1.4,0.3
		c-0.5,0.1-1,0.2-1.4,0.4c-0.4,0.2-0.8,0.3-1.2,0.5L20.1,10.5z M25.2,24.9c0.7,0,1.3-0.1,1.8-0.3c0.5-0.2,1-0.4,1.4-0.7
		c0.4-0.3,0.7-0.6,1-0.9c0.3-0.3,0.4-0.7,0.6-1v-3c-0.3,0-0.7,0-1-0.1c-0.3,0-0.7,0-1,0c-0.7,0-1.5,0-2.2,0.1
		c-0.7,0.1-1.3,0.2-1.9,0.5c-0.5,0.2-1,0.5-1.3,0.9C22.2,21,22,21.5,22,22.1c0,0.8,0.3,1.5,0.9,2.1C23.5,24.7,24.3,24.9,25.2,24.9z"
		/>
	<path fill="#FFFFFF" d="M47.9,27.2V17c0-1,0-1.8-0.1-2.5c-0.1-0.7-0.2-1.3-0.5-1.8c-0.2-0.5-0.6-0.8-1-1.1c-0.4-0.2-1-0.4-1.7-0.4
		c-1.1,0-2,0.3-2.8,1c-0.7,0.7-1.2,1.5-1.5,2.5v12.4h-2.9v-18h2l0.5,2.2H40c0.6-0.8,1.4-1.4,2.2-1.9c0.9-0.5,2-0.7,3.3-0.7
		c1.2,0,2.1,0.2,2.8,0.7c0.7,0.4,1.3,1.2,1.7,2.3c0.6-0.9,1.3-1.7,2.3-2.2c1-0.5,2.1-0.8,3.3-0.8c1,0,1.9,0.1,2.6,0.3
		c0.7,0.2,1.3,0.6,1.7,1.2c0.5,0.6,0.8,1.4,1,2.3c0.2,1,0.3,2.2,0.3,3.7v10.8h-2.9V16.3c0-0.9,0-1.6-0.1-2.2
		c-0.1-0.6-0.3-1.2-0.5-1.6c-0.3-0.4-0.6-0.7-1-0.9c-0.4-0.2-1-0.3-1.7-0.3c-1.2,0-2.1,0.3-2.8,1c-0.7,0.7-1.2,1.6-1.4,2.9v12H47.9z
		"/>
	<path fill="#FFFFFF" d="M65.7,2h2.9v9h0.1c0.6-0.7,1.3-1.2,2.1-1.6c0.9-0.4,1.8-0.6,2.8-0.6c2.3,0,4.1,0.7,5.2,2.2
		c1.2,1.5,1.7,3.8,1.7,6.9c0,3.1-0.8,5.5-2.3,7.2c-1.5,1.6-3.7,2.4-6.5,2.4c-1.3,0-2.6-0.1-3.7-0.4c-1.1-0.3-1.9-0.6-2.5-0.9V2z
		 M73.1,11.3c-1.2,0-2.2,0.3-2.9,1c-0.7,0.7-1.3,1.6-1.6,2.8v9.1c0.5,0.3,1,0.5,1.7,0.6c0.6,0.1,1.3,0.2,2,0.2
		c1.6,0,2.9-0.6,3.9-1.7c1-1.2,1.5-3,1.5-5.4c0-0.9-0.1-1.8-0.3-2.6c-0.2-0.8-0.4-1.5-0.8-2.1c-0.4-0.6-0.8-1-1.4-1.4
		C74.6,11.4,73.9,11.3,73.1,11.3z"/>
	<path fill="#FFFFFF" d="M92.7,11.9c-0.7-0.2-1.4-0.4-2.1-0.4c-1,0-1.8,0.3-2.4,0.8c-0.6,0.6-1,1.3-1.1,2.1v12.6h-2.9v-18h2l0.5,2.2
		h0.1c0.5-0.8,1-1.4,1.6-1.9C89.2,9,90,8.8,90.9,8.8c0.7,0,1.5,0.1,2.3,0.4L92.7,11.9z"/>
	<path fill="#FFFFFF" d="M95.5,3.7c0-0.6,0.2-1,0.6-1.4c0.4-0.4,0.8-0.6,1.4-0.6s1.1,0.2,1.5,0.6c0.4,0.4,0.6,0.9,0.6,1.4
		c0,0.6-0.2,1-0.6,1.4c-0.4,0.4-0.9,0.5-1.5,0.5s-1-0.2-1.4-0.5C95.7,4.7,95.5,4.3,95.5,3.7z M96.1,9.2H99v18h-2.9V9.2z"/>
	<path fill="#FFFFFF" d="M118.1,21c0,1.2,0,2.3,0,3.3c0,1,0.1,2,0.3,2.9h-1.9l-0.7-2.6h-0.1c-0.5,0.8-1.2,1.5-2.1,2.1
		c-0.9,0.6-2,0.8-3.2,0.8c-2.4,0-4.2-0.8-5.3-2.3c-1.2-1.5-1.7-3.9-1.7-7.1c0-3.1,0.7-5.4,2.2-7c1.5-1.6,3.4-2.4,6-2.4
		c0.9,0,1.6,0,2.1,0.1c0.5,0.1,1.1,0.3,1.7,0.5V2h2.9V21z M110.8,25.1c1.2,0,2.2-0.3,2.9-1c0.7-0.6,1.2-1.6,1.5-2.9v-8.9
		c-0.4-0.3-0.9-0.6-1.5-0.7c-0.6-0.1-1.3-0.2-2.2-0.2c-1.7,0-3,0.5-3.9,1.6c-0.9,1.1-1.4,2.8-1.4,5.2c0,1,0.1,1.9,0.2,2.7
		c0.2,0.8,0.4,1.6,0.8,2.2c0.4,0.6,0.8,1.1,1.4,1.4C109.3,24.9,110,25.1,110.8,25.1z"/>
	<path fill="#FFFFFF" d="M136.5,28c0,2.3-0.6,4-1.9,5.1c-1.2,1.1-3.1,1.7-5.5,1.7c-1.4,0-2.6-0.1-3.5-0.3c-0.9-0.2-1.6-0.4-2.2-0.7
		l0.8-2.4c0.6,0.2,1.2,0.4,1.8,0.6c0.7,0.2,1.5,0.3,2.6,0.3c1,0,1.8-0.1,2.5-0.3c0.6-0.2,1.1-0.5,1.5-0.9c0.4-0.4,0.6-1,0.8-1.6
		c0.1-0.7,0.2-1.4,0.2-2.4v-1.7h-0.1c-0.5,0.7-1.1,1.2-1.8,1.6c-0.7,0.4-1.7,0.6-2.9,0.6c-2.4,0-4.2-0.8-5.3-2.3
		c-1.1-1.5-1.7-3.9-1.7-7.1c0-3.1,0.7-5.4,2.2-7c1.5-1.6,3.6-2.4,6.5-2.4c1.4,0,2.5,0.1,3.5,0.3c1,0.2,1.8,0.5,2.6,0.8V28z
		 M129.3,25c1.2,0,2.2-0.3,2.9-0.9c0.7-0.6,1.2-1.6,1.5-2.9v-9.2c-1-0.5-2.2-0.7-3.7-0.7c-1.6,0-2.9,0.6-3.8,1.7
		c-0.9,1.1-1.4,2.8-1.4,5.2c0,1,0.1,1.9,0.3,2.8c0.2,0.8,0.4,1.6,0.8,2.2c0.4,0.6,0.8,1.1,1.4,1.4C127.7,24.9,128.4,25,129.3,25z"/>
	<path fill="#FFFFFF" d="M154.3,25.7c-0.7,0.6-1.6,1-2.7,1.4c-1.1,0.3-2.2,0.5-3.5,0.5c-1.4,0-2.6-0.2-3.6-0.7
		c-1-0.4-1.8-1.1-2.5-1.9c-0.6-0.8-1.1-1.8-1.4-3c-0.3-1.2-0.5-2.4-0.5-3.9c0-3.1,0.7-5.4,2.1-7c1.4-1.6,3.3-2.4,5.9-2.4
		c0.8,0,1.6,0.1,2.4,0.3c0.8,0.2,1.5,0.5,2.2,1c0.6,0.5,1.2,1.2,1.6,2.1c0.4,0.9,0.6,2.1,0.6,3.7c0,0.8-0.1,1.7-0.2,2.6h-11.5
		c0,1.1,0.1,2,0.3,2.8c0.2,0.8,0.6,1.5,1,2.1c0.5,0.6,1,1,1.8,1.3c0.7,0.3,1.6,0.4,2.7,0.4c0.8,0,1.6-0.1,2.4-0.4
		c0.8-0.3,1.4-0.6,1.8-1L154.3,25.7z M148.1,11.3c-1.4,0-2.5,0.4-3.4,1.1c-0.9,0.7-1.4,2-1.5,3.8h8.9c0-1.8-0.3-3.1-1-3.8
		C150.3,11.6,149.3,11.3,148.1,11.3z"/>
	<path fill="#FF9738" d="M171.2,0h0.9c0,0.4-0.1,0.8-0.1,1.2c0,0.4-0.1,0.9-0.2,1.3c-0.1,0.4-0.1,0.9-0.2,1.3
		c-0.1,0.4-0.2,0.7-0.3,1h-8.8l-0.9,6.9h2.3c1.2,0,2.3,0.2,3.3,0.5c1,0.3,1.8,0.8,2.6,1.4c0.7,0.6,1.3,1.4,1.7,2.3
		c0.4,0.9,0.6,2,0.6,3.1c0,1.4-0.2,2.6-0.7,3.7c-0.5,1.1-1.1,1.9-1.9,2.6c-0.8,0.7-1.7,1.2-2.7,1.6c-1,0.4-2.1,0.5-3.1,0.5
		c-0.5,0-1,0-1.5-0.1c-0.6-0.1-1.1-0.2-1.6-0.4c-0.5-0.2-1-0.4-1.5-0.6c-0.5-0.2-0.9-0.5-1.2-0.7l1-3.2h0.7c0.1,0.2,0.3,0.4,0.5,0.6
		c0.2,0.3,0.4,0.5,0.7,0.8c0.2,0.3,0.5,0.6,0.7,0.9c0.2,0.3,0.4,0.5,0.6,0.8c0.2,0,0.5,0.1,0.7,0.2c0.2,0.1,0.5,0.1,1,0.1
		c0.8,0,1.5-0.2,2.2-0.5c0.7-0.3,1.2-0.7,1.7-1.3c0.5-0.5,0.9-1.2,1.1-1.9c0.3-0.7,0.4-1.5,0.4-2.3c0-1-0.2-1.8-0.5-2.5
		c-0.4-0.7-0.9-1.3-1.5-1.7c-0.6-0.4-1.3-0.8-2.2-1c-0.8-0.2-1.7-0.3-2.6-0.3l-2.6,0L161.1,2h8.6L171.2,0z"/>
	<path fill="#FF9738" d="M175.3,14.6c0-4.3,0.7-7.6,2.2-9.7c1.4-2.2,3.5-3.3,6.2-3.3c2.9,0,5,1.1,6.4,3.2c1.3,2.1,2,5.4,2,9.8
		c0,4.3-0.7,7.6-2.2,9.7c-1.5,2.2-3.6,3.3-6.4,3.3c-1.5,0-2.7-0.3-3.7-0.9c-1-0.6-1.9-1.4-2.5-2.6c-0.6-1.1-1.1-2.5-1.4-4.1
		C175.4,18.5,175.3,16.6,175.3,14.6z M178.7,14.6c0,1.7,0.1,3.3,0.3,4.7c0.2,1.4,0.4,2.6,0.8,3.6c0.4,1,0.9,1.8,1.4,2.3
		c0.6,0.5,1.3,0.8,2.1,0.8c1.9,0,3.2-0.9,4-2.8c0.8-1.9,1.2-4.8,1.2-8.7c0-1.7-0.1-3.3-0.2-4.7s-0.4-2.6-0.8-3.6
		c-0.4-1-0.9-1.8-1.5-2.3c-0.6-0.5-1.4-0.8-2.4-0.8c-1.8,0-3.1,0.9-3.8,2.8C179.1,7.8,178.7,10.7,178.7,14.6z"/>
</g>
</svg>
